HIERARCHY
ROOT Hips
{
 OFFSET 0.000000 0.000000 0.000000
 CHANNELS 6 Xposition Yposition Zposition Yrotation Xrotation Zrotation
 JOINT Chest
 {
  OFFSET 0.000000 14.634200 -0.016200
  CHANNELS 3 Yrotation Xrotation Zrotation
  JOINT Chest2
  {
   OFFSET 0.000000 8.932900 0.033000
   CHANNELS 3 Yrotation Xrotation Zrotation
   JOINT Chest3
   {
    OFFSET 0.000000 8.892300 0.000000
    CHANNELS 3 Yrotation Xrotation Zrotation
    JOINT Chest4
    {
     OFFSET 0.000000 8.883200 0.000000
     CHANNELS 3 Yrotation Xrotation Zrotation
     JOINT Neck
     {
      OFFSET 0.000000 13.173600 0.000000
      CHANNELS 3 Yrotation Xrotation Zrotation
      JOINT Head
      {
       OFFSET 0.000000 8.324600 0.069800
       CHANNELS 3 Yrotation Xrotation Zrotation
       End Site
       {
        OFFSET 0.000000 15.692400 0.036900
       }
      }
     }
     JOINT RightCollar
     {
      OFFSET -2.619200 8.772200 0.000000
      CHANNELS 3 Yrotation Xrotation Zrotation
      JOINT RightShoulder
      {
       OFFSET -12.922000 0.000000 0.000000
       CHANNELS 3 Yrotation Xrotation Zrotation
       JOINT RightElbow
       {
        OFFSET 0.000000 -27.880900 0.000000
        CHANNELS 3 Yrotation Xrotation Zrotation
        JOINT RightWrist
        {
         OFFSET 0.000000 -22.758700 0.008200
         CHANNELS 3 Yrotation Xrotation Zrotation
         End Site
         {
          OFFSET 0.000000 -16.965000 0.000000
         }
        }
       }
      }
     }
     JOINT LeftCollar
     {
      OFFSET 2.619200 8.772200 0.000000
      CHANNELS 3 Yrotation Xrotation Zrotation
      JOINT LeftShoulder
      {
       OFFSET 12.922000 0.000000 0.000000
       CHANNELS 3 Yrotation Xrotation Zrotation
       JOINT LeftElbow
       {
        OFFSET 0.000000 -27.880900 0.000000
        CHANNELS 3 Yrotation Xrotation Zrotation
        JOINT LeftWrist
        {
         OFFSET 0.000000 -22.758700 0.008200
         CHANNELS 3 Yrotation Xrotation Zrotation
         End Site
         {
          OFFSET 0.000000 -16.965000 0.000000
         }
        }
       }
      }
     }
    }
   }
  }
 }
 JOINT RightHip
 {
  OFFSET -12.026800 0.080100 0.008100
  CHANNELS 3 Yrotation Xrotation Zrotation
  JOINT RightKnee
  {
   OFFSET 0.000000 -42.600800 -0.000200
   CHANNELS 3 Yrotation Xrotation Zrotation
   JOINT RightAnkle
   {
    OFFSET 0.000000 -38.219300 0.054300
    CHANNELS 3 Yrotation Xrotation Zrotation
    JOINT RightToe
    {
     OFFSET 0.000000 -9.685800 15.804700
     CHANNELS 3 Yrotation Xrotation Zrotation
     End Site
     {
      OFFSET 0.000000 -1.422300 5.761700
     }
    }
   }
  }
 }
 JOINT LeftHip
 {
  OFFSET 12.026800 0.080100 0.008100
  CHANNELS 3 Yrotation Xrotation Zrotation
  JOINT LeftKnee
  {
   OFFSET 0.000000 -42.600800 -0.000200
   CHANNELS 3 Yrotation Xrotation Zrotation
   JOINT LeftAnkle
   {
    OFFSET 0.000000 -38.219300 0.054300
    CHANNELS 3 Yrotation Xrotation Zrotation
    JOINT LeftToe
    {
     OFFSET 0.000000 -9.685800 15.804700
     CHANNELS 3 Yrotation Xrotation Zrotation
     End Site
     {
      OFFSET 0.000000 -1.422300 5.761700
     }
    }
   }
  }
 }
}
MOTION
Frames: 11
Frame Time: 0.008333
0.000000 90.254400 0.000000 0.000000 -5.767877 0.000000 0.000000 11.653817 0.000000 0.000000 -5.885947 0.000000 0.000000 -0.000000 0.000000 0.000000 -0.000000 0.000000 0.000000 12.528835 0.000000 0.000000 0.711642 0.000000 0.000000 -0.000000 0.000000 0.000000 0.000000 -90.000000 0.000000 -2.309062 0.000000 0.000000 2.309062 0.000000 0.000000 -0.000000 0.000000 0.000000 -0.000000 90.000000 0.000000 -2.309062 0.000000 0.000000 2.309062 0.000000 0.000000 8.520406 0.000000 0.000000 1.905762 0.000000 -0.000000 -4.658285 0.000000 0.000000 -0.000000 0.000000 0.000000 8.520406 0.000000 0.000000 1.905762 0.000000 -0.000000 -4.658285 0.000000 0.000000 -0.000000 0.000000
-10.446670 151.967426 23.367989 170.283239 -18.990738 0.140066 -0.677043 21.456683 0.282202 -0.090569 2.865647 0.075893 -0.147137 4.674776 0.121694 -0.533755 18.277450 0.420331 -1.524936 11.409394 -1.592965 -1.238088 -13.663218 -1.319738 7.413832 -0.507603 -3.194863 20.739550 -28.783232 -10.853340 6.911510 -59.487702 14.019784 5.862778 4.523729 -57.686047 -8.773963 -0.689844 -2.497408 -2.123201 -27.200375 2.513480 37.608296 -35.218912 -55.345725 7.426079 -19.994187 25.775644 -4.188820 -53.344115 13.117147 -29.038329 76.161322 -42.585221 -7.850635 -18.542165 10.514098 0.047665 -0.158469 0.031436 21.204944 -51.966881 -23.089119 77.649777 76.225104 87.426480 6.066133 0.015106 -3.902488 0.053413 -3.859859 0.767095
-11.875397 144.743358 25.102090 170.278151 -18.997643 0.066086 -0.641069 21.461233 0.363608 -0.093255 2.867410 0.075813 -0.145431 4.675740 0.121714 -0.535988 18.278059 0.415773 -1.522340 11.409336 -1.589390 -1.239095 -13.662487 -1.321068 7.415708 -0.511894 -3.194508 20.739156 -28.782808 -10.849908 6.908848 -59.479387 14.022348 5.871650 4.511721 -57.674759 -8.769723 -0.689505 -2.496377 -2.133817 -27.196965 2.520343 37.613093 -35.221379 -55.346105 7.430914 -19.999663 25.774268 -4.287986 -53.337531 13.248479 -29.068315 76.165459 -42.615212 -7.832438 -18.609834 10.524673 0.019615 -0.095297 0.012017 21.106650 -51.982272 -22.959967 77.615513 76.227664 87.397966 6.103847 0.062208 -3.887598 0.042089 0.058286 0.025802
-13.058776 138.794017 26.529776 170.280704 -19.001616 0.029651 -0.629856 21.464271 0.402274 -0.098494 2.866732 0.074634 -0.140572 4.678096 0.121993 -0.539499 18.277347 0.414968 -1.521042 11.411225 -1.591434 -1.239436 -13.663108 -1.321428 7.410116 -0.515612 -3.191834 20.750240 -28.784514 -10.853948 6.904878 -59.466063 14.029354 5.875751 4.496805 -57.676482 -8.758555 -0.691348 -2.500529 -2.145640 -27.190416 2.525343 37.605785 -35.226676 -55.344370 7.435448 -20.006895 25.774641 -4.340894 -53.335337 13.313266 -29.098067 76.168502 -42.647550 -7.827713 -18.644432 10.530277 0.011923 -0.063196 0.007306 21.049817 -51.986078 -22.891900 77.582487 76.227836 87.361095 6.115332 0.084330 -3.875544 0.023632 0.035308 0.014486
-13.908333 134.497569 27.561256 170.277612 -19.008226 -0.014618 -0.625698 21.466458 0.443698 -0.087083 2.870381 0.075456 -0.142770 4.677583 0.120761 -0.541677 18.276307 0.417465 -1.518819 11.412376 -1.596606 -1.237247 -13.662998 -1.324138 7.419844 -0.518575 -3.197612 20.755883 -28.788096 -10.855293 6.894817 -59.449055 14.035075 5.876587 4.480170 -57.686521 -8.752944 -0.689708 -2.502825 -2.142594 -27.188159 2.522105 37.592569 -35.233176 -55.341973 7.437439 -20.021280 25.779838 -4.397933 -53.326802 13.392356 -29.114245 76.170583 -42.663751 -7.826645 -18.685902 10.533479 0.002069 -0.024703 0.001268 20.980752 -51.991659 -22.801703 77.562393 76.237664 87.335075 6.145577 0.102150 -3.867406 0.009037 0.014487 0.005539
-14.448821 131.783745 28.213311 170.276197 -19.009195 -0.027444 -0.626359 21.465711 0.456037 -0.085559 2.870513 0.075050 -0.147632 4.675524 0.121629 -0.544560 18.277096 0.417680 -1.513616 11.410872 -1.599869 -1.236420 -13.667953 -1.329396 7.431702 -0.516507 -3.204585 20.756894 -28.790508 -10.856805 6.888243 -59.441080 14.043944 5.877615 4.468604 -57.697147 -8.743157 -0.687807 -2.508408 -2.140067 -27.186721 2.519266 37.587823 -35.239902 -55.339268 7.443522 -20.026326 25.764447 -4.413331 -53.329189 13.413984 -29.121722 76.175576 -42.666423 -7.827848 -18.696596 10.529751 0.001599 -0.015905 0.000980 20.962336 -51.995022 -22.776422 77.556253 76.241335 87.328036 6.156833 0.111193 -3.868949 0.006017 0.007366 0.003687
-14.746348 130.291209 28.572179 170.273459 -19.010728 -0.032299 -0.623737 21.466811 0.461672 -0.091965 2.868994 0.075715 -0.148057 4.675754 0.121260 -0.541702 18.278280 0.416599 -1.515177 11.408605 -1.601825 -1.230447 -13.672429 -1.331985 7.435713 -0.516589 -3.207166 20.757160 -28.791784 -10.859904 6.878517 -59.439024 14.058131 5.879455 4.466221 -57.702055 -8.743851 -0.684580 -2.510426 -2.147460 -27.191087 2.523537 37.592435 -35.243062 -55.342313 7.443301 -20.041446 25.765345 -4.413412 -53.330052 13.419208 -29.119717 76.179329 -42.662517 -7.830460 -18.703146 10.531461 -0.001038 -0.010942 -0.000636 20.954875 -51.996052 -22.763879 77.564264 76.244899 87.335004 6.161993 0.114637 -3.870867 0.004194 0.003696 0.002570
-14.888327 129.580490 28.743472 170.272155 -19.011828 -0.032901 -0.629823 21.466039 0.463026 -0.093965 2.868822 0.077788 -0.149737 4.676530 0.120703 -0.539172 18.279138 0.411571 -1.514354 11.405440 -1.601430 -1.224351 -13.679523 -1.337898 7.438424 -0.517516 -3.209628 20.758851 -28.792340 -10.863449 6.870125 -59.438032 14.069675 5.881170 4.453056 -57.702976 -8.741008 -0.688119 -2.515639 -2.149033 -27.188084 2.527305 37.593826 -35.246845 -55.345366 7.440938 -20.051533 25.764179 -4.406511 -53.330211 13.415282 -29.117489 76.181383 -42.657400 -7.832073 -18.707941 10.532422 -0.001850 -0.007323 -0.001134 20.957941 -51.998345 -22.763736 77.579807 76.245523 87.346783 6.162018 0.118828 -3.863263 0.000053 -0.000779 0.000033
-14.947280 129.289821 28.813670 170.276369 -19.013341 -0.030623 -0.637665 21.466699 0.460740 -0.091117 2.868992 0.075998 -0.151000 4.677280 0.120841 -0.545724 18.279620 0.410574 -1.510043 11.393431 -1.603813 -1.219858 -13.676912 -1.340106 7.435385 -0.519502 -3.212758 20.764338 -28.792568 -10.863498 6.865737 -59.438563 14.078302 5.880215 4.417448 -57.722271 -8.738211 -0.688305 -2.519894 -2.146597 -27.192345 2.527999 37.589200 -35.250123 -55.344184 7.441915 -20.054368 25.767128 -4.397204 -53.330495 13.398994 -29.108781 76.185174 -42.644267 -7.830487 -18.714325 10.534445 -0.003073 -0.006701 -0.001883 20.962699 -51.995840 -22.772493 77.582367 76.242500 87.350827 6.158492 0.121177 -3.861219 0.000286 -0.002829 0.000176
-14.967082 129.188829 28.838336 170.279087 -19.015370 -0.032494 -0.637223 21.468532 0.464200 -0.092780 2.868654 0.074355 -0.151391 4.678095 0.121611 -0.547072 18.277933 0.407950 -1.507873 11.388034 -1.603514 -1.218550 -13.681854 -1.337715 7.431467 -0.519928 -3.210350 20.764650 -28.791148 -10.862668 6.856366 -59.437750 14.086171 5.886941 4.400338 -57.726044 -8.741697 -0.690401 -2.514845 -2.124845 -27.198366 2.511400 37.567944 -35.250851 -55.335138 7.435344 -20.057885 25.759587 -4.396443 -53.326571 13.400942 -29.110370 76.184401 -42.644669 -7.840962 -18.719643 10.536301 -0.002049 -0.006065 -0.001255 20.964638 -51.991687 -22.774269 77.574186 76.241263 87.347559 6.158547 0.121389 -3.861929 0.002348 -0.002439 0.001439
-14.972284 129.159094 28.846831 170.275900 -19.012846 -0.034503 -0.631190 21.464053 0.466469 -0.093629 2.869516 0.075062 -0.150762 4.676468 0.120230 -0.547526 18.279815 0.409591 -1.506062 11.381997 -1.605473 -1.218636 -13.686882 -1.332701 7.425933 -0.521382 -3.208590 20.768565 -28.789073 -10.862139 6.858106 -59.438934 14.085734 5.889693 4.387885 -57.727994 -8.741838 -0.692283 -2.513329 -2.119386 -27.199169 2.504652 37.561933 -35.253561 -55.331624 7.429644 -20.063202 25.749180 -4.395200 -53.329988 13.408172 -29.107928 76.175533 -42.638891 -7.843626 -18.712742 10.532859 0.001346 -0.007989 0.000825 20.965997 -51.992316 -22.772934 77.564858 76.239067 87.342089 6.158802 0.120020 -3.864796 0.003830 -0.000639 0.002347
